<svg width="80" height="80" viewBox="0 0 80 80" fill="none" xmlns="http://www.w3.org/2000/svg">
<mask id="mask0_1841_14906" style="mask-type:alpha" maskUnits="userSpaceOnUse" x="16" y="6" width="51" height="68">
<path fill-rule="evenodd" clip-rule="evenodd" d="M49.3491 14.6485H33.8845C33.0031 14.6485 32.6539 14.2993 32.6539 13.4014V7.9139C32.6539 7.01595 33.0031 6.66675 33.9011 6.66675H41.6334H49.2992C50.2637 6.66675 50.5963 6.99932 50.5963 7.98041V13.4014C50.5963 14.2993 50.2471 14.6485 49.3491 14.6485ZM22.7433 48.6874C25.5535 49.1031 27.7319 51.1152 28.4303 53.8589C28.4469 53.9254 28.4635 53.993 28.4801 54.0605L28.4802 54.0606C28.5301 54.2632 28.5799 54.4659 28.6298 54.6405C28.8645 54.5427 29.0973 54.4468 29.3283 54.3516L29.3287 54.3514L29.329 54.3513L29.3294 54.3511C30.0801 54.0418 30.8114 53.7405 31.5232 53.41C31.6895 53.3434 31.8392 53.094 31.8724 52.8945C32.3713 49.4024 32.654 45.8772 32.654 42.3353V23.3786V22.6802H34.6494V23.1624C34.6494 24.8008 34.6504 26.4382 34.6515 28.0751C34.6546 32.9837 34.6577 37.8876 34.6328 42.8009C34.6328 44.5302 34.533 46.243 34.4166 47.9724C34.3551 48.9564 34.2557 49.934 34.1573 50.9015L34.1573 50.9016L34.1573 50.9016L34.1573 50.9017C34.0961 51.5037 34.0353 52.1017 33.9843 52.6949C39.1059 52.4954 44.2109 52.4954 49.1829 52.6949C49.1252 51.6626 49.056 50.6286 48.9867 49.5929V49.5929C48.8361 47.3422 48.6849 45.0837 48.6507 42.8175C48.5903 38.0763 48.6002 33.3264 48.6101 28.5804V28.5802C48.6138 26.8012 48.6175 25.0227 48.6175 23.2455V22.6635H50.6129V23.4284V42.3851C50.6129 45.9104 50.879 49.4024 51.3779 52.8778C51.4111 53.0607 51.5109 53.3102 51.6605 53.3767C52.2089 53.6183 52.7573 53.8496 53.3085 54.0821L53.3098 54.0826C53.7444 54.2659 54.1808 54.45 54.6204 54.6405C54.6264 54.6226 54.6367 54.6047 54.6474 54.586C54.6665 54.5526 54.687 54.5168 54.687 54.4742C55.3355 51.2316 57.3309 49.2694 60.6068 48.6375C60.8229 48.5876 61.089 48.4047 61.2054 48.2052C61.8705 47.0412 62.3029 45.794 62.4525 44.4471C62.7519 41.8031 62.5024 39.1592 61.9869 36.5817C61.3816 33.6355 60.6891 30.711 59.9976 27.7907L59.9969 27.7878C59.8339 27.0995 59.671 26.4113 59.5093 25.7232C59.3762 25.1246 59.1933 24.5093 58.894 23.9772C58.3785 23.1125 57.5637 22.6968 56.5494 22.6635V28.5833H54.6371C54.6307 28.5516 54.6244 28.5271 54.6189 28.5062C54.6102 28.4724 54.6038 28.4479 54.6038 28.417V23.8109C54.5872 21.9152 53.34 20.6515 51.4277 20.6515H45.2585H31.7893C30.3925 20.6515 29.2617 21.3997 28.846 22.6469C28.713 23.046 28.6797 23.495 28.6631 23.9273C28.652 24.9576 28.6557 25.9954 28.6594 27.0355V27.0356V27.0356V27.0356C28.6612 27.5567 28.6631 28.0783 28.6631 28.6H26.7009V22.73C25.4371 22.6802 24.2731 23.5947 23.9239 24.9583C23.5913 26.2886 23.2754 27.6189 22.9761 28.9492C22.7934 29.7508 22.6011 30.5504 22.4089 31.3499L22.4088 31.3501C21.6559 34.4809 20.9034 37.61 20.7312 40.8553C20.5815 43.3829 20.7146 45.8439 21.9617 48.122C22.128 48.438 22.3276 48.6209 22.7433 48.6874ZM66.4933 55.1061C66.3769 53.6428 65.6452 52.4122 64.448 51.5476C62.8849 50.4002 61.1887 50.2339 59.4427 51.0653C57.6635 51.9134 56.7156 53.3933 56.5992 55.3555C56.5803 55.7149 56.5877 56.0791 56.5951 56.4436V56.4436V56.4437V56.4437C56.6072 57.0403 56.6193 57.6376 56.5161 58.2157C55.9507 61.6245 53.1405 63.0213 49.6318 62.456V60.5437C49.8676 60.5437 50.0976 60.5456 50.3246 60.5474H50.3249H50.3252C50.7703 60.5511 51.2035 60.5547 51.6439 60.5437C53.3067 60.4938 54.6038 59.1801 54.5705 57.5339C54.5705 57.3011 54.4042 56.9685 54.2047 56.8521C52.0263 55.422 49.6152 54.6239 46.9878 54.5906C43.396 54.5407 39.8043 54.5407 36.1958 54.5906C33.5851 54.6239 31.174 55.4387 28.9956 56.8687C28.8127 56.9851 28.6464 57.2845 28.6464 57.5006C28.5965 59.1801 29.9102 60.5104 31.5897 60.5603C32.0313 60.5713 32.4656 60.5677 32.9071 60.564C33.1306 60.5622 33.356 60.5603 33.5851 60.5603V62.5557C33.3309 62.5557 33.0843 62.5577 32.8428 62.5595L32.8419 62.5596C32.373 62.5632 31.9231 62.5667 31.4733 62.5557C29.1453 62.4892 27.1332 60.8264 26.7507 58.5316C26.6385 57.8332 26.6385 57.1161 26.6385 56.3943C26.6385 56.1537 26.6385 55.9126 26.6343 55.6715C26.6011 52.9943 24.6722 50.8325 22.0947 50.6163C19.5505 50.3835 17.2059 52.2127 16.7902 54.8567C16.655 55.7351 16.6627 56.6355 16.6703 57.5311C16.672 57.7375 16.6738 57.9436 16.6738 58.1491C16.6738 61.9072 19.3177 64.5345 23.1091 64.5345H36.3954H60.3407C63.5167 64.5345 66.0443 62.4227 66.4767 59.2799C66.6429 57.8997 66.5931 56.4863 66.4933 55.1061ZM46.5887 18.5895V16.6772H36.678V18.5895H46.5887ZM57.6298 71.8073C57.7768 71.7936 57.9291 71.7795 58.0127 71.8512C58.2455 72.0341 58.5614 72.3168 58.5448 72.5662C58.5448 72.799 58.2455 73.0983 57.9961 73.2646C57.8863 73.35 57.7049 73.3369 57.5241 73.3239C57.4585 73.3192 57.3929 73.3145 57.3309 73.3145H25.9193H25.8029C25.038 73.3145 24.6722 73.0651 24.6888 72.5496C24.7054 72.0507 25.0546 71.8179 25.7863 71.8179H31.6396H32.4045V65.6986H50.8457V71.8179H51.5441H57.4639C57.5154 71.8179 57.5722 71.8126 57.6298 71.8073Z" fill="black"/>
</mask>
<g mask="url(#mask0_1841_14906)">
<rect width="80" height="80" fill="#C7C7C7"/>
</g>
</svg>
